<?xml version="1.0" encoding="iso-8859-1"?>
<!-- Generator: Adobe Illustrator 16.0.0, SVG Export Plug-In . SVG Version: 6.00 Build 0)  -->
<!DOCTYPE svg PUBLIC "-//W3C//DTD SVG 1.1//EN" "http://www.w3.org/Graphics/SVG/1.1/DTD/svg11.dtd">
<svg xmlns="http://www.w3.org/2000/svg" xmlns:xlink="http://www.w3.org/1999/xlink" version="1.1" id="Capa_1" x="0px" y="0px" width="512px" height="512px" viewBox="0 0 307.055 307.054" style="enable-background:new 0 0 307.055 307.054;" xml:space="preserve">
<g>
	<g id="_x34_87._Back">
		<g>
			<path d="M271.467,129.976H103.547l92.071-92.077c6.131-6.125,6.131-16.068,0-22.201L184.518,4.597     c-6.136-6.129-16.07-6.129-22.205,0L35.585,131.326l-11.101,11.101c-6.131,6.129-6.131,16.068,0,22.204l11.101,11.1     l126.727,126.724c6.135,6.135,16.069,6.135,22.205,0l11.101-11.101c6.131-6.132,6.131-16.074,0-22.201l-92.071-92.075h167.919     c8.664,0,15.701-7.037,15.701-15.701v-15.699C287.168,137.002,280.131,129.976,271.467,129.976z" fill="#5694c2"/>
		</g>
	</g>
</g>
<g>
</g>
<g>
</g>
<g>
</g>
<g>
</g>
<g>
</g>
<g>
</g>
<g>
</g>
<g>
</g>
<g>
</g>
<g>
</g>
<g>
</g>
<g>
</g>
<g>
</g>
<g>
</g>
<g>
</g>
</svg>
